<?xml version="1.0" encoding="UTF-8"?>
<svg width="28px" height="200px" viewBox="0 0 28 200" version="1.1" xmlns="http://www.w3.org/2000/svg" xmlns:xlink="http://www.w3.org/1999/xlink">
    <!-- Generator: Sketch 60.1 (88133) - https://sketch.com -->
    <title>左手臂组</title>
    <desc>Created with Sketch.</desc>
    <g id="页面-1" stroke="none" stroke-width="1" fill="none" fill-rule="evenodd">
        <g id="左手臂组" transform="translate(0.000000, 1.000000)">
            <g id="大臂组">
                <g id="大臂" transform="translate(7.000000, 0.000000)" fill="#E1E7F3">
                    <path d="M9.749,71.963 L9.749,71.963 C4.365,71.963 -2.66453526e-14,67.599 -2.66453526e-14,62.215 L-2.66453526e-14,9.748 C-2.66453526e-14,4.364 4.365,-1.42108547e-14 9.749,-1.42108547e-14 C15.133,-1.42108547e-14 19.497,4.364 19.497,9.748 L19.497,62.215 C19.497,67.599 15.133,71.963 9.749,71.963" id="Fill-149"></path>
                </g>
                <g id="服装组" transform="translate(7.000000, 0.000400)">
                    <g id="服装" transform="translate(-0.000000, 0.000000)" fill="#96A7CA">
                        <path d="M19.497,31.989 L19.497,9.748 C19.497,4.386 15.11,-4.08562073e-14 9.749,-4.08562073e-14 C4.387,-4.08562073e-14 3.01980663e-14,4.386 3.01980663e-14,9.748 L3.01980663e-14,31.778 L19.497,31.989 Z" id="Fill-153"></path>
                    </g>
                    <g id="装饰" transform="translate(0.282000, 0.000000)" stroke="#687EA5" stroke-linecap="round" stroke-linejoin="round" stroke-width="0.5">
                        <path d="M3.01980663e-14,31.778 L19.497,31.989 L19.497,9.748 C19.497,4.386 15.11,-4.08562073e-14 9.749,-4.08562073e-14" id="Stroke-155"></path>
                    </g>
                </g>
                <g id="小臂组" transform="translate(0.000000, 82.000000)">
                    <g id="小臂" transform="translate(7.000000, 0.000000)" fill="#E1E7F3">
                        <path d="M8.24774939,72.962 L8.24774939,72.962 C5.24474939,72.962 2.77274939,70.601 2.63574939,67.601 L0.00074938566,9.687 C-0.0652506143,4.357 4.23674939,0 9.56774939,0 C14.9447494,0 19.2657494,4.43 19.1317494,9.806 L13.8417494,67.855 C13.5787494,70.748 11.1527494,72.962 8.24774939,72.962" id="Fill-151"></path>
                    </g>
                    <g id="手组" transform="translate(0.000000, 86.000000)">
                        <g id="手" fill="#E1E7F3">
                            <path d="M5.28775038,8.75219813 C5.28775038,8.75219813 9.94175038,-0.555801871 16.0507504,0.0261981289 C21.5827504,0.553198129 21.7227504,6.13519813 21.7227504,6.13519813 C21.7227504,6.13519813 22.7407504,11.6611981 21.4317504,17.7701981 C20.5687504,21.7951981 18.1527504,29.2811981 15.9777504,29.1141981 C13.1417504,28.8961981 16.3697504,20.5811981 14.4507504,19.8061981 C12.4807504,19.0101981 11.6867504,20.6791981 8.63275038,23.8781981 C6.72475038,25.8781981 5.62975038,28.6001981 3.68775038,29.9861981 C-0.107249618,32.6971981 -2.85724962,22.1331981 5.28775038,8.75219813" id="Fill-157"></path>
                        </g>
                        <path d="M8.92405038,18.4239981 C8.92405038,18.4239981 4.34205038,21.2599981 2.16105038,28.2409981" id="Stroke-159" stroke="#96A7CA" stroke-width="0.581" stroke-linecap="round" stroke-linejoin="round"></path>
                        <path d="M1.28825038,24.0968981 C1.28825038,24.0968981 2.67025038,19.1518981 6.59725038,15.4428981" id="Stroke-161" stroke="#96A7CA" stroke-width="0.581" stroke-linecap="round" stroke-linejoin="round"></path>
                        <path d="M6.01505038,11.6612981 C6.01505038,11.6612981 3.54305038,13.5522981 1.07005038,18.9332981" id="Stroke-163" stroke="#96A7CA" stroke-width="0.581" stroke-linecap="round" stroke-linejoin="round"></path>
                    </g>
                </g>
            </g>
        </g>
    </g>
</svg>