<svg width="570px" height="691px" viewBox="0 0 570 391" version="1.1" 
  xmlns="http://www.w3.org/2000/svg" 
  xmlns:xlink="http://www.w3.org/1999/xlink" style="transition: all 0.5s">
  <!-- Generator: Sketch 60.1 (88133) - https://sketch.com -->
  <title>花盆</title>
  <desc>Created with Sketch.</desc>
  <defs>
    <polygon id="path-1" points="0 0.494886779 115.12205 0.494886779 115.12205 69.5 0 69.5"></polygon>
    <polygon id="path-3" points="0.12215 0.146044139 117.2325 0.146044139 117.2325 58.2515951 0.12215 58.2515951">
    </polygon>
    <polygon id="path-5" points="0.12215 0.222869937 111.2325 0.222869937 111.2325 53.2515951 0.12215 53.2515951">
    </polygon>
  </defs>
  <g id="页面-1" stroke="none" stroke-width="1" fill="none" fill-rule="evenodd">
    <g id="花盆" transform="translate(0.000000, -2.000000)">
      <g id="叶子4" transform="translate(0.000000, 171.000000)">
        <path d="M120.467746,104.959851 L126.967746,104.959851 L126.967746,11.4598509 L120.467746,11.4598509 L122.219246,40.1888509 C122.717746,48.3633509 122.772246,56.5593509 122.383246,64.7398509 L120.467746,104.959851 Z" id="Fill-5" fill="#7CB305" transform="translate(123.717746, 58.209851) rotate(-8.000000) translate(-123.717746, -58.209851) "></path>
        <g id="编组-3" transform="translate(61.000000, 39.000000) rotate(4.000000) translate(-61.000000, -39.000000) translate(3.000000, 4.000000)">
          <g id="编组">
            <mask id="mask-2" fill="white">
              <use xlink:href="#path-1"></use>
            </mask>
            <g id="Clip-2"></g>
            <path d="M0.12205,69.5 C0.12205,69.5 -4.87795,29.5 49.12205,11.5 C103.12205,-6.5 115.12205,3 115.12205,3 L110.12205,19 C110.12205,19 101.62205,59 62.62205,64.5 C23.62205,70 8.62205,62 0.12205,69.5" id="Fill-1" fill="#7CB305" mask="url(#mask-2)"></path>
          </g>
          <path d="M3.12205,62.5 C3.12205,62.5 12.12205,43.5 43.12205,39 C89.30955,32.2955 110.12205,5.5 110.12205,5.5" id="Stroke-3" stroke="#BAE637" stroke-width="2"></path>
        </g>
      </g>
      <g id="叶子1" transform="translate(15.488550, 76.824456)">
        <g id="编组-4" transform="translate(63.000000, 37.500000) rotate(8.000000) translate(-63.000000, -37.500000) translate(4.000000, 8.000000)">
          <path d="M0,17.4535559 C0,17.4535559 19.9025,-12.8109441 67.3185,6.36555586 C114.734,25.5415559 117.1105,40.8540559 117.1105,40.8540559 L104.653,47.0575559 C104.653,47.0575559 75.5205,69.4515559 45.648,50.4740559 C15.776,31.4965559 10.1845,17.2810559 0,17.4535559" id="Fill-7" fill="#7CB305"></path>
          <path d="M67.6105,16.3540559 C89.1875,33.1000559 111.1105,43.8540559 111.1105,43.8540559 L104.653,47.0575559 C104.653,47.0575559 75.5205,69.4515559 45.648,50.4740559 C15.776,31.4965559 10.1845,17.2810559 0,17.4535559 C0,17.4535559 34.1105,-9.64594414 67.6105,16.3540559 Z" id="Fill-11" fill="#389E0D"></path>
        </g>
        <path d="M112.12205,223.5295 L117.12205,223.5295 L119.08105,58.4775 C119.10505,56.442 117.76405,54.6415 115.80655,54.082 L112.12205,53.0295 C112.12205,53.0295 113.37755,68.3655 113.12205,87.529 C112.87755,105.8615 111.12205,127.6755 111.12205,143.832 C111.12205,189.5295 112.12205,223.5295 112.12205,223.5295" id="Fill-9" fill="#7CB305"></path>
      </g>
      <g id="叶子5" transform="translate(220.500000, 241.500000) scale(-1, 1) translate(-220.500000, -241.500000) translate(180.500000, 171.500000)" fill="#7CB305">
        <path d="M0,11.7146928 C0,11.7146928 13.4257603,-8.59860741 45.4114832,4.27251225 C77.3968688,17.1432963 79,27.4209288 79,27.4209288 L70.5964623,31.5846704 C70.5964623,31.5846704 50.9443602,46.6153514 30.7930715,33.877799 C10.64212,21.1402466 6.87022513,11.5989121 0,11.7146928" id="Fill-7"></path>
        <path d="M74.6910141,140 L78.1460844,140 L79.499781,28.6746041 C79.5163653,27.3016862 78.5897154,26.0872727 77.2370554,25.7098974 L74.6910141,25 C74.6910141,25 75.5585822,35.3439296 75.3820281,48.2694575 C75.2130752,60.6344868 74,75.3477419 74,86.245088 C74,117.067449 74.6910141,140 74.6910141,140" id="Fill-9"></path>
      </g>
      <g id="叶子3" transform="translate(152.000000, 58.000000)">
        <g id="编组-6" transform="translate(0.337267, 0.000000)">
          <g id="编组">
            <mask id="mask-4" fill="white">
              <use xlink:href="#path-3"></use>
            </mask>
            <g id="Clip-14"></g>
            <path d="M117.23265,17.5996 C117.23265,17.5996 97.33015,-12.6649 49.91415,6.5116 C2.49865,25.6876 0.12215,41.0001 0.12215,41.0001 L12.57965,47.2036 C12.57965,47.2036 41.71215,69.5976 71.58465,50.6201 C101.45665,31.6426 107.04815,17.4271 117.23265,17.5996" id="Fill-13" fill="#7CB305" mask="url(#mask-4)"></path>
          </g>
          <g id="编组" transform="translate(6.000000, 5.000000)">
            <mask id="mask-6" fill="white">
              <use xlink:href="#path-5"></use>
            </mask>
            <g id="Clip-18"></g>
            <path d="M111.23265,12.5996 C111.23265,12.5996 77.12215,-14.4999 43.62215,11.5001 C22.04515,28.2461 0.12215,39.0001 0.12215,39.0001 L6.57965,42.2036 C6.57965,42.2036 35.71215,64.5976 65.58465,45.6201 C95.45665,26.6426 101.04815,12.4271 111.23265,12.5996" id="Fill-17" fill="#389E0D" mask="url(#mask-6)"></path>
          </g>
        </g>
        <path d="M6.95931699,214 L1.95931699,214 L0.000316993919,42.448 C-0.0236830061,40.4125 1.31731699,38.612 3.27481699,38.0525 L6.95931699,37 C6.95931699,37 5.70381699,52.336 5.95931699,71.4995 C6.20381699,89.832 7.95931699,111.646 7.95931699,127.8025 C7.95931699,173.5 6.95931699,214 6.95931699,214" id="Fill-15" fill="#7CB305"></path>
      </g>
      <g id="叶子2" transform="translate(43.000000, 0.000000)">
        <path d="M96.452112,287.063021 L104.952112,287.063021 L108.314112,180.803021 L101.911112,80.5110211 C101.935112,78.4755211 100.594112,76.6750211 98.636612,76.1155211 L94.952112,75.0630211 C94.952112,75.0630211 102.952112,154.709021 102.952112,170.865521 C102.952112,216.563021 96.452112,287.063021 96.452112,287.063021" id="Fill-19" fill="#7CB305"></path>
        <g id="编组-5" transform="translate(54.000000, 43.500000) rotate(4.000000) translate(-54.000000, -43.500000) translate(3.000000, 4.000000)">
          <path d="M-4.26325641e-14,11.9152573 C-4.26325641e-14,11.9152573 18.1535,-14.9702427 61.1535,12.0297573 C104.469,39.2277573 101.4615,74.9072573 101.4615,74.9072573 L87.6195,76.3477573 C87.6195,76.3477573 52.483,87.0997573 31.1655,58.8497573 C9.848,30.5997573 9.5975,15.3262573 -4.26325641e-14,11.9152573" id="Fill-21" fill="#7CB305"></path>
          <path d="M3.55271368e-14,11.9152573 C3.55271368e-14,11.9152573 19.542,-2.49024271 36.1535,18.0297573 C44.6535,28.5297573 59.6915,36.4462573 66.1535,42.5297573 C82.94,58.3347573 94.7905,75.6122573 94.7905,75.6122573 L87.6195,76.3477573 C87.6195,76.3477573 52.483,87.0997573 31.1655,58.8497573 C9.848,30.5997573 9.5975,15.3262573 3.55271368e-14,11.9152573" id="Fill-23" fill="#389E0D"></path>
        </g>
      </g>
      <path d="M210,393 L94,393 C87.3725,393 82,387.6275 82,381 L82,265 C82,258.3725 87.3725,253 94,253 L210,253 C216.6275,253 222,258.3725 222,265 L222,381 C222,387.6275 216.6275,393 210,393" id="Fill-25" fill="#253369"></path>
    </g>
  </g>
  <script>
    <![CDATA[
      document.getElementById('花盆').style.transform = 'translate(100px, 30px)'
      document.getElementById('花盆').style.transition = 'all 0.5s'
      ]]>
  </script>
</svg>