<?xml version="1.0" encoding="UTF-8"?>
<svg width="139px" height="133px" viewBox="0 0 139 133" version="1.1" 
  xmlns="http://www.w3.org/2000/svg" 
  xmlns:xlink="http://www.w3.org/1999/xlink">
  <!-- Generator: Sketch 60.1 (88133) - https://sketch.com -->
  <title>大2</title>
  <desc>Created with Sketch.</desc>
  <g id="页面-1" stroke="none" stroke-width="1" fill="none" fill-rule="evenodd">
    <g id="target">
      <g id="小" transform="translate(60.000000, 4.000000)">
        <g id="手" transform="translate(47.000000, 67.000000)">
          <path d="M20.9585725,-1.95399252e-14 C26.0895725,-1.95399252e-14 30.2495725,4.16 30.2495725,9.292 C30.2495725,11.5490052 29.444963,13.6178169 28.107008,15.2274262 C32.5342131,22.0905867 30.7280725,35.8769 30.7280725,35.8769 C28.0570725,57.5879 15.5190725,65.5359 13.6650725,59.1449 C12.7160725,55.8739 16.5430725,38.2549 10.5990725,38.3819 C7.66507254,38.4449 4.06607254,49.2069 0.707072544,46.8019 C-1.86892746,44.9579 3.28207254,35.3509 5.16607254,29.9749 C8.04107254,21.7719 12.5160725,15.4509 12.5160725,15.4509 C12.5160725,15.4509 12.8176377,15.1178771 13.3566821,14.6388694 C12.2921249,13.1258587 11.6665725,11.2820859 11.6665725,9.292 C11.6665725,4.16 15.8265725,-1.95399252e-14 20.9585725,-1.95399252e-14 Z" id="形状结合" fill="#B0BEDC"></path>
          <circle id="定位点" fill="#6DD400" cx="21.5" cy="9.5" r="1.5"></circle>
        </g>
        <path d="M11.945,90.121 L31.134,90.121 C36.136,90.121 40.251,86.182 40.469,81.184 L43.079,21.539 C43.079,9.643 33.435,0 21.539,0 C9.644,0 0,9.643 0,21.539 L2.609,81.184 C2.828,86.182 6.943,90.121 11.945,90.121" id="Fill-85" fill="#CCD7EE"></path>
        <circle id="定位点" fill="#6DD400" cx="20.5" cy="18.5" r="1.5"></circle>
        <circle id="锚点" fill="#0091FF" cx="21.5" cy="82.5" r="1.5"></circle>
      </g>
      <path d="M21.539,87.607 L21.539,87.607 C33.435,87.607 43.079,77.963 43.079,66.068 L43.079,21.54 C43.079,9.643 33.435,0 21.539,0 C9.643,0 0,9.643 0,21.54 L0,66.068 C0,77.963 9.643,87.607 21.539,87.607" id="Fill-83" fill="#CCD7EE"></path>
      <circle id="定位点" fill="#6DD400" cx="21.5" cy="14.5" r="1.5"></circle>
      <circle id="锚点" fill="#0091FF" cx="21.5" cy="71.5" r="1.5"></circle>
    </g>
  </g>
</svg>