<?xml version="1.0" encoding="UTF-8"?>
<svg width="106px" height="90px" viewBox="0 0 106 90" version="1.1" 
  xmlns="http://www.w3.org/2000/svg" 
  xmlns:xlink="http://www.w3.org/1999/xlink">
  <!-- Generator: Sketch 60.1 (88133) - https://sketch.com -->
  <title>大1</title>
  <desc>Created with Sketch.</desc>
  <g id="页面-1" stroke="none" stroke-width="1" fill="none" fill-rule="evenodd">
    <g id="target">
      <g id="小" transform="translate(50.000000, 2.000000)">
        <g id="手" transform="translate(47.813625, 70.613129) rotate(-330.000000) translate(-47.813625, -70.613129) translate(36.313625, 55.113129)">
          <path d="M16.8121474,8.75219813 C16.8121474,8.75219813 12.1581474,-0.555801871 6.04914737,0.0261981289 C0.517147368,0.553198129 0.377147368,6.13519813 0.377147368,6.13519813 C0.377147368,6.13519813 -0.640852632,11.6611981 0.668147368,17.7701981 C1.53114737,21.7951981 3.94714737,29.2811981 6.12214737,29.1141981 C8.95814737,28.8961981 5.73014737,20.5811981 7.64914737,19.8061981 C9.61914737,19.0101981 10.4131474,20.6791981 13.4671474,23.8781981 C15.3751474,25.8781981 16.4701474,28.6001981 18.4121474,29.9861981 C22.2071474,32.6971981 24.9571474,22.1331981 16.8121474,8.75219813" id="Fill-173" fill="#E1E7F3"></path>
          <circle id="定位点" fill="#6DD400" cx="5.5" cy="3.5" r="1.5"></circle>
        </g>
        <path d="M16.4990346,67.601 L19.1340346,9.687 C19.2000346,4.357 14.8980346,0 9.56703456,0 C4.19003456,0 -0.130965442,4.43 0.00303455827,9.806 L5.29303456,67.855 C5.55603456,70.748 7.98203456,72.962 10.8870346,72.962 C13.8900346,72.962 16.3620346,70.601 16.4990346,67.601 Z" id="Fill-167" fill="#E1E7F3"></path>
        <circle id="定位点" fill="#6DD400" cx="9.5" cy="7.5" r="1.5"></circle>
        <circle id="锚点" fill="#0091FF" cx="10.5" cy="67.5" r="1.5"></circle>
      </g>
      <path d="M9.749,71.963 L9.749,71.963 C15.133,71.963 19.497,67.599 19.497,62.215 L19.497,9.748 C19.497,4.364 15.133,0 9.749,0 C4.365,0 0,4.364 0,9.748 L0,62.215 C0,67.599 4.365,71.963 9.749,71.963" id="Fill-165" fill="#E1E7F3"></path>
      <circle id="定位点" fill="#6DD400" cx="9.5" cy="9.5" r="1.5"></circle>
      <circle id="锚点" fill="#0091FF" cx="9.5" cy="62.5" r="1.5"></circle>
    </g>
  </g>
</svg>