<svg id="ejric9evsxu1" xmlns="http://www.w3.org/2000/svg" xmlns:xlink="http://www.w3.org/1999/xlink" viewBox="0 0 134 152" shape-rendering="geometricPrecision" text-rendering="geometricPrecision"><style><![CDATA[#ejric9evsxu3_tr {animation: ejric9evsxu3_tr__tr 1500ms linear 1 reverse backwards}@keyframes ejric9evsxu3_tr__tr { 0% {transform: translate(16.886436px,79.801587px) rotate(0deg);animation-timing-function: cubic-bezier(0.420000,0,0.580000,1)} 46.666667% {transform: translate(16.886436px,79.801587px) rotate(-26.077074deg);animation-timing-function: cubic-bezier(0.420000,0,0.580000,1)} 60% {transform: translate(16.886436px,79.801587px) rotate(-26.077074deg);animation-timing-function: cubic-bezier(0.420000,0,0.580000,1)} 100% {transform: translate(16.886436px,79.801587px) rotate(0deg)} }#ejric9evsxu4_tr {animation: ejric9evsxu4_tr__tr 1500ms linear 1 reverse backwards}@keyframes ejric9evsxu4_tr__tr { 0% {transform: translate(66.500035px,134.500403px) rotate(0deg);animation-timing-function: cubic-bezier(0.420000,0,1,1)} 40% {transform: translate(66.500035px,134.500403px) rotate(42.849456deg);animation-timing-function: cubic-bezier(0.465000,0.080000,1,1)} 60% {transform: translate(66.500035px,134.500403px) rotate(15.309224deg);animation-timing-function: cubic-bezier(0.420000,0,0.580000,1)} 100% {transform: translate(66.500035px,134.500403px) rotate(42.849456deg)} }]]></style><defs><linearGradient id="ejric9evsxu8-fill" x1="0.235568" y1="0.852092" x2="0.977899" y2="-0.529380" spreadMethod="pad" gradientUnits="objectBoundingBox"><stop id="ejric9evsxu8-fill-0" offset="0%" stop-color="rgb(5,155,255)"/><stop id="ejric9evsxu8-fill-1" offset="100%" stop-color="rgb(5,231,255)"/></linearGradient><linearGradient id="ejric9evsxu11-fill" x1="-0.219859" y1="-0.300251" x2="1.073319" y2="1.096621" spreadMethod="pad" gradientUnits="objectBoundingBox"><stop id="ejric9evsxu11-fill-0" offset="1%" stop-color="rgb(141,0,250)"/><stop id="ejric9evsxu11-fill-1" offset="100%" stop-color="rgb(5,155,255)"/></linearGradient></defs><g id="ejric9evsxu2"><g id="ejric9evsxu3_tr" transform="translate(16.886436,79.801587) rotate(0)"><g id="ejric9evsxu3" transform="translate(-17.500000,-79.500000)"><g id="ejric9evsxu4_tr" transform="translate(66.500035,134.500403) rotate(42.849456)"><g id="ejric9evsxu4" transform="translate(-66.113600,-134.372000)"><g id="ejric9evsxu5" transform="matrix(0.99756400000000 -0.06975600000000 0.06975700000000 0.99756400000000 95.23660000000000 3.19520000000003)"><path id="ejric9evsxu6" d="M37.778550,0.178850C42.737550,2.986850,30.202050,9.538850,27.085050,16.959350C32.063550,17.113850,29.063550,24.237350,29.063550,24.237350C29.063550,24.237350,33.014550,24.496850,31.340550,30.379850C34.771050,32.917850,31.136550,39.492350,31.136550,39.492350C31.136550,39.492350,21.932550,56.850350,12.557550,68.094350C12.557550,68.094350,-2.008950,77.125850,1.198050,55.893350L4.247778,48.216294C4.224748,47.229883,4.290532,46.101431,4.460250,44.820650C4.460250,44.820650,7.049250,33.507650,8.703750,27.779150C10.358250,22.049150,8.976750,11.255150,12.945750,14.484650C14.794049,15.989249,14.815137,19.432474,14.460989,22.939894C17.078958,19.346294,32.814918,-1.873077,37.778550,0.178850Z" fill="rgb(255,194,189)" stroke="none" stroke-width="1"/><circle id="ejric9evsxu7" r="1.500000" transform="matrix(1 0 0 1 6.48200000000000 64.67780000000000)" fill="rgb(0,255,251)" fill-rule="evenodd" stroke="none" stroke-width="1"/></g><path id="ejric9evsxu8" d="M101.473363,54.871597L119.249863,65.742097L115.509143,73.630859C117.073024,76.271782,116.959888,79.308472,115.028263,83.787547C111.413263,92.162047,105.126763,102.717547,100.623763,111.117547C92.123623,126.974377,84.714334,139.170534,84.566999,139.412871C84.564763,139.416547,72.726763,157.425547,57.353263,148.023547C41.501263,138.327547,52.056763,120.527047,52.056763,120.527047C52.056763,120.527047,59.793763,108.183547,69.264763,92.930047C75.045763,83.616547,81.635263,73.461547,87.476263,66.774547C90.476266,63.340586,93.176996,61.974211,96.007463,61.988141L101.473363,54.871597Z" transform="matrix(1 0 0 1 0.79726554515984 1.46515930651006)" fill="url(#ejric9evsxu8-fill)" stroke="none" stroke-width="1"/><circle id="ejric9evsxu9" r="1.500000" transform="matrix(1 0 0 1 66.11360000000001 134.37200000000001)" fill="rgb(0,255,251)" fill-rule="evenodd" stroke="none" stroke-width="1"/><circle id="ejric9evsxu10" r="1.500000" transform="matrix(1 0 0 1 106.11400000000000 67.37160000000000)" fill="rgb(0,255,251)" fill-rule="evenodd" stroke="none" stroke-width="1"/></g></g><path id="ejric9evsxu11" d="M77.397892,145.902553C62.931892,159.152053,48.921892,143.157553,48.921892,143.157553C48.921892,143.157553,38.684392,132.678553,26.705392,119.598553C17.343892,109.377553,10.119892,101.570053,4.752892,94.458553C-1.038608,86.786053,-0.818108,76.079053,5.826892,69.993553C15.924892,60.744553,25.704892,63.050053,32.478892,69.803053C39.065392,76.370053,47.679892,85.503553,54.780892,92.903053C68.430892,107.130553,77.142892,117.665053,77.142892,117.665053C77.142892,117.665053,91.584892,132.909553,77.397892,145.902553Z" transform="matrix(1 0 0 1 -0.00000063000000 1.17990267000000)" fill="url(#ejric9evsxu11-fill)" stroke="none" stroke-width="1"/><circle id="ejric9evsxu12" r="1.500000" transform="matrix(1 0 0 1 17.50000000000000 79.50000000000000)" fill="rgb(0,255,251)" fill-rule="evenodd" stroke="none" stroke-width="1"/><circle id="ejric9evsxu13" r="1.500000" transform="matrix(1 0 0 1 66.50000000000000 134.50000000000000)" fill="rgb(0,255,251)" fill-rule="evenodd" stroke="none" stroke-width="1"/></g></g></g></svg>