<?xml version="1.0" encoding="UTF-8"?>
<svg width="134px" height="152px" viewBox="0 0 134 152" version="1.1" 
  xmlns="http://www.w3.org/2000/svg" 
  xmlns:xlink="http://www.w3.org/1999/xlink">
  <!-- Generator: Sketch 60.1 (88133) - https://sketch.com -->
  <title>DB</title>
  <desc>Created with Sketch.</desc>
  <g id="页面-1" stroke="none" stroke-width="1" fill="none" fill-rule="evenodd">
    <g id="target">
      <g id="小臂" transform="translate(47.386435, 0.128403)">
        <g id="手" transform="translate(69.165498, 37.248471) rotate(-4.000000) translate(-69.165498, -37.248471) translate(49.665498, 1.748471)">
          <path d="M37.77855,0.17885 C42.73755,2.98685 30.20205,9.53885 27.08505,16.95935 C32.06355,17.11385 29.06355,24.23735 29.06355,24.23735 C29.06355,24.23735 33.01455,24.49685 31.34055,30.37985 C34.77105,32.91785 31.13655,39.49235 31.13655,39.49235 C31.13655,39.49235 21.93255,56.85035 12.55755,68.09435 C12.55755,68.09435 -2.00895,77.12585 1.19805,55.89335 L4.2477781,48.2162939 C4.22474808,47.2298835 4.2905315,46.1014306 4.46025,44.82065 C4.46025,44.82065 7.04925,33.50765 8.70375,27.77915 C10.35825,22.04915 8.97675,11.25515 12.94575,14.48465 C14.7940492,15.9892486 14.8151368,19.4324741 14.4609894,22.9398935 C17.0789581,19.3462936 32.8149184,-1.87307739 37.77855,0.17885 Z" id="形状结合" fill="#FFC2BD" fill-rule="nonzero"></path>
          <circle id="手点A" fill="#00FFFB" cx="6.48199506" cy="64.6778236" r="1.5"></circle>
        </g>
        <path d="M53.4733631,54.8715971 L71.2498631,65.7420971 L67.509143,73.6308594 C69.073024,76.2717817 68.9598881,79.3084721 67.0282631,83.7875471 C63.4132631,92.1620471 57.1267631,102.717547 52.6237631,111.117547 C44.1236231,126.974377 36.7143344,139.170534 36.5669987,139.412871 C36.5647631,139.416547 24.7267631,157.425547 9.35326312,148.023547 C-6.49873688,138.327547 4.05676312,120.527047 4.05676312,120.527047 C4.05676312,120.527047 11.7937631,108.183547 21.2647631,92.9300471 C27.0457631,83.6165471 33.6352631,73.4615471 39.4762631,66.7745471 C42.4762662,63.3405858 45.1769956,61.974211 48.0074625,61.9881408 L53.4733631,54.8715971 Z" id="形状结合" fill="#FA6400" fill-rule="nonzero"></path>
        <circle id="小臂点A" fill="#00FFFB" cx="18.1135651" cy="134.371597" r="1.5"></circle>
        <circle id="小臂点B" fill="#00FFFB" cx="58.1135651" cy="67.3715971" r="1.5"></circle>
      </g>
      <path d="M76.7843269,146.030956 C62.3183269,159.280456 48.3083269,143.285956 48.3083269,143.285956 C48.3083269,143.285956 38.0708269,132.806956 26.0918269,119.726956 C16.7303269,109.505956 9.50632693,101.698456 4.13932693,94.5869561 C-1.65217307,86.9144561 -1.43167307,76.2074561 5.21332693,70.1219561 C15.3113269,60.8729561 25.0913269,63.1784561 31.8653269,69.9314561 C38.4518269,76.4984561 47.0663269,85.6319561 54.1673269,93.0314561 C67.8173269,107.258956 76.5293269,117.793456 76.5293269,117.793456 C76.5293269,117.793456 90.9713269,133.037956 76.7843269,146.030956 Z" id="服装组" fill="#FA6400" fill-rule="nonzero"></path>
      <circle id="大臂点A" fill="#00FFFB" cx="16.5" cy="79.5" r="1.5"></circle>
      <circle id="小臂锚点" fill="#00FFFB" cx="65.5" cy="134.5" r="1.5"></circle>
    </g>
    <circle id="大臂锚点" fill="#CBFF00" cx="16.5" cy="79.5" r="1.5"></circle>
  </g>
</svg>